<svg height="464pt" viewBox="-112 0 464 464" width="464pt" xmlns="http://www.w3.org/2000/svg"><path d="m72 0h96v240h-96zm0 0" fill="#696969"/><path d="m16 240h208c8.835938 0 16 7.164062 16 16v192c0 8.835938-7.164062 16-16 16h-208c-8.835938 0-16-7.164062-16-16v-192c0-8.835938 7.164062-16 16-16zm0 0" fill="#fda2c6"/><path d="m177.519531 432h-115.039062c-8.21875 0-15.097657-6.222656-15.921875-14.398438l-14.558594-145.601562h176l-14.558594 145.601562c-.824218 8.175782-7.703125 14.398438-15.921875 14.398438zm0 0" fill="#ff6aa0"/><path d="m120 352c-4.417969 0-8-3.582031-8-8v-64c0-4.417969 3.582031-8 8-8s8 3.582031 8 8v64c0 4.417969-3.582031 8-8 8zm0 0" fill="#696969"/><path d="m136 392h-32l8-48h16zm0 0" fill="#b4b4b4"/></svg>